  0
SECTION
  2
HEADER
  9
$ACADVER
  1
AC1009
  9
$DWGCODEPAGE
  3
ansi_1252
  9
$INSBASE
 10
0.0
 20
0.0
 30
0.0
  9
$EXTMIN
 10
387.5597
 20
-112.634
 30
0.0
  9
$EXTMAX
 10
403.9512
 20
-89.5449
 30
0.0
  9
$LIMMIN
 10
0.0
 20
0.0
  9
$LIMMAX
 10
12.0
 20
9.0
  9
$ORTHOMODE
 70
     0
  9
$REGENMODE
 70
     1
  9
$FILLMODE
 70
     1
  9
$QTEXTMODE
 70
     0
  9
$MIRRTEXT
 70
     1
  9
$DRAGMODE
 70
     2
  9
$LTSCALE
 40
1.0
  9
$OSMODE
 70
    37
  9
$ATTMODE
 70
     1
  9
$TEXTSIZE
 40
0.2
  9
$TRACEWID
 40
0.05
  9
$TEXTSTYLE
  7
STANDARD
  9
$CLAYER
  8
0
  9
$CELTYPE
  6
BYLAYER
  9
$CECOLOR
 62
   256
  9
$DIMSCALE
 40
1.0
  9
$DIMASZ
 40
0.18
  9
$DIMEXO
 40
0.0625
  9
$DIMDLI
 40
0.38
  9
$DIMRND
 40
0.0
  9
$DIMDLE
 40
0.0
  9
$DIMEXE
 40
0.18
  9
$DIMTP
 40
0.0
  9
$DIMTM
 40
0.0
  9
$DIMTXT
 40
0.18
  9
$DIMCEN
 40
0.09
  9
$DIMTSZ
 40
0.0
  9
$DIMTOL
 70
     0
  9
$DIMLIM
 70
     0
  9
$DIMTIH
 70
     1
  9
$DIMTOH
 70
     1
  9
$DIMSE1
 70
     0
  9
$DIMSE2
 70
     0
  9
$DIMTAD
 70
     0
  9
$DIMZIN
 70
     0
  9
$DIMBLK
  1

  9
$DIMASO
 70
     1
  9
$DIMSHO
 70
     1
  9
$DIMPOST
  1

  9
$DIMAPOST
  1

  9
$DIMALT
 70
     0
  9
$DIMALTD
 70
     2
  9
$DIMALTF
 40
25.4
  9
$DIMLFAC
 40
1.0
  9
$DIMTOFL
 70
     0
  9
$DIMTVP
 40
0.0
  9
$DIMTIX
 70
     0
  9
$DIMSOXD
 70
     0
  9
$DIMSAH
 70
     0
  9
$DIMBLK1
  1

  9
$DIMBLK2
  1

  9
$DIMSTYLE
  2
STANDARD
  9
$DIMCLRD
 70
     0
  9
$DIMCLRE
 70
     0
  9
$DIMCLRT
 70
     0
  9
$DIMTFAC
 40
1.0
  9
$DIMGAP
 40
0.09
  9
$LUNITS
 70
     2
  9
$LUPREC
 70
     4
  9
$SKETCHINC
 40
0.1
  9
$FILLETRAD
 40
0.5
  9
$AUNITS
 70
     0
  9
$AUPREC
 70
     0
  9
$MENU
  1
.
  9
$ELEVATION
 40
0.0
  9
$PELEVATION
 40
0.0
  9
$THICKNESS
 40
0.0
  9
$LIMCHECK
 70
     0
  9
$CHAMFERA
 40
0.0
  9
$CHAMFERB
 40
0.0
  9
$SKPOLY
 70
     0
  9
$TDCREATE
 40
2458524.481090266
  9
$TDUPDATE
 40
2458524.48109029
  9
$TDINDWG
 40
0.0000000116
  9
$TDUSRTIMER
 40
0.0000000116
  9
$USRTIMER
 70
     1
  9
$ANGBASE
 50
0.0
  9
$ANGDIR
 70
     0
  9
$PDMODE
 70
     0
  9
$PDSIZE
 40
0.0
  9
$PLINEWID
 40
0.0
  9
$COORDS
 70
     1
  9
$SPLFRAME
 70
     0
  9
$SPLINETYPE
 70
     6
  9
$SPLINESEGS
 70
     8
  9
$ATTDIA
 70
     0
  9
$ATTREQ
 70
     1
  9
$HANDLING
 70
     1
  9
$HANDSEED
  5
12C
  9
$SURFTAB1
 70
     6
  9
$SURFTAB2
 70
     6
  9
$SURFTYPE
 70
     6
  9
$SURFU
 70
     6
  9
$SURFV
 70
     6
  9
$UCSNAME
  2

  9
$UCSORG
 10
0.0
 20
0.0
 30
0.0
  9
$UCSXDIR
 10
1.0
 20
0.0
 30
0.0
  9
$UCSYDIR
 10
0.0
 20
1.0
 30
0.0
  9
$PUCSNAME
  2

  9
$PUCSORG
 10
0.0
 20
0.0
 30
0.0
  9
$PUCSXDIR
 10
1.0
 20
0.0
 30
0.0
  9
$PUCSYDIR
 10
0.0
 20
1.0
 30
0.0
  9
$USERI1
 70
     0
  9
$USERI2
 70
     0
  9
$USERI3
 70
     0
  9
$USERI4
 70
     0
  9
$USERI5
 70
     0
  9
$USERR1
 40
0.0
  9
$USERR2
 40
0.0
  9
$USERR3
 40
0.0
  9
$USERR4
 40
0.0
  9
$USERR5
 40
0.0
  9
$WORLDVIEW
 70
     1
  9
$SHADEDGE
 70
     3
  9
$SHADEDIF
 70
    70
  9
$TILEMODE
 70
     1
  9
$MAXACTVP
 70
    64
  9
$PLIMCHECK
 70
     0
  9
$PEXTMIN
 10
1.000000000000000E+20
 20
1.000000000000000E+20
 30
1.000000000000000E+20
  9
$PEXTMAX
 10
-1.000000000000000E+20
 20
-1.000000000000000E+20
 30
-1.000000000000000E+20
  9
$PLIMMIN
 10
0.0
 20
0.0
  9
$PLIMMAX
 10
12.0
 20
9.0
  9
$UNITMODE
 70
     0
  9
$VISRETAIN
 70
     1
  9
$PLINEGEN
 70
     0
  9
$PSLTSCALE
 70
     1
  0
ENDSEC
  0
SECTION
  2
TABLES
  0
TABLE
  2
VPORT
 70
     1
  0
VPORT
  2
*ACTIVE
 70
     0
 10
0.0
 20
0.0
 11
1.0
 21
1.0
 12
10.42990654205607
 22
4.5
 13
0.0
 23
0.0
 14
0.5
 24
0.5
 15
0.5
 25
0.5
 16
0.0
 26
0.0
 36
1.0
 17
0.0
 27
0.0
 37
0.0
 40
9.0
 41
1.972972972850329
 42
50.0
 43
0.0
 44
0.0
 50
0.0
 51
0.0
 71
     0
 72
   100
 73
     1
 74
     3
 75
     0
 76
     0
 77
     0
 78
     0
  0
ENDTAB
  0
TABLE
  2
LTYPE
 70
     1
  0
LTYPE
  2
CONTINUOUS
 70
     0
  3
Solid line
 72
    65
 73
     0
 40
0.0
  0
ENDTAB
  0
TABLE
  2
LAYER
 70
     2
  0
LAYER
  2
0
 70
     0
 62
     7
  6
CONTINUOUS
  0
LAYER
  2
OUTLINE
 70
     0
 62
     7
  6
CONTINUOUS
  0
ENDTAB
  0
TABLE
  2
STYLE
 70
     1
  0
STYLE
  2
STANDARD
 70
     0
 40
0.0
 41
1.0
 50
0.0
 71
     0
 42
0.2
  3
txt
  4

  0
ENDTAB
  0
TABLE
  2
VIEW
 70
     0
  0
ENDTAB
  0
TABLE
  2
UCS
 70
     0
  0
ENDTAB
  0
TABLE
  2
APPID
 70
     2
  0
APPID
  2
ACAD
 70
     0
  0
APPID
  2
ODA
 70
     0
  0
ENDTAB
  0
TABLE
  2
DIMSTYLE
 70
     1
  0
DIMSTYLE
  2
STANDARD
 70
     0
  3

  4

  5

  6

  7

 40
1.0
 41
0.18
 42
0.0625
 43
0.38
 44
0.18
 45
0.0
 46
0.0
 47
0.0
 48
0.0
140
0.18
141
0.09
142
0.0
143
25.4
144
1.0
145
0.0
146
1.0
147
0.09
 71
     0
 72
     0
 73
     1
 74
     1
 75
     0
 76
     0
 77
     0
 78
     0
170
     0
171
     2
172
     0
173
     0
174
     0
175
     0
176
     0
177
     0
178
     0
  0
ENDTAB
  0
ENDSEC
  0
SECTION
  2
BLOCKS
  0
BLOCK
  8
0
  2
$MODEL_SPACE
 70
     0
 10
0.0
 20
0.0
 30
0.0
  3
$MODEL_SPACE
  1

  0
ENDBLK
  5
21
  8
0
  0
BLOCK
 67
     1
  8
0
  2
$PAPER_SPACE
 70
     0
 10
0.0
 20
0.0
 30
0.0
  3
$PAPER_SPACE
  1

  0
ENDBLK
  5
1D
 67
     1
  8
0
  0
ENDSEC
  0
SECTION
  2
ENTITIES
  0
POLYLINE
  5
70
  8
OUTLINE
 62
   250
 66
     1
 10
0.0
 20
0.0
 30
0.0
 70
     1
  0
VERTEX
  5
7B
  8
OUTLINE
 62
   250
 10
403.3711
 20
-101.0795
 30
0.0
  0
VERTEX
  5
7C
  8
OUTLINE
 62
   250
 10
403.2114
 20
-103.2915
 30
0.0
  0
VERTEX
  5
7D
  8
OUTLINE
 62
   250
 10
402.7536
 20
-105.3516
 30
0.0
  0
VERTEX
  5
7E
  8
OUTLINE
 62
   250
 10
402.0291
 20
-107.2158
 30
0.0
  0
VERTEX
  5
7F
  8
OUTLINE
 62
   250
 10
401.0696
 20
-108.8399
 30
0.0
  0
VERTEX
  5
80
  8
OUTLINE
 62
   250
 10
399.9067
 20
-110.1799
 30
0.0
  0
VERTEX
  5
81
  8
OUTLINE
 62
   250
 10
398.5721
 20
-111.1917
 30
0.0
  0
VERTEX
  5
82
  8
OUTLINE
 62
   250
 10
397.0973
 20
-111.8311
 30
0.0
  0
VERTEX
  5
83
  8
OUTLINE
 62
   250
 10
395.5139
 20
-112.054
 30
0.0
  0
VERTEX
  5
84
  8
OUTLINE
 62
   250
 10
394.2678
 20
-111.9171
 30
0.0
  0
VERTEX
  5
85
  8
OUTLINE
 62
   250
 10
393.0844
 20
-111.5204
 30
0.0
  0
VERTEX
  5
86
  8
OUTLINE
 62
   250
 10
391.9787
 20
-110.8848
 30
0.0
  0
VERTEX
  5
87
  8
OUTLINE
 62
   250
 10
390.9654
 20
-110.0315
 30
0.0
  0
VERTEX
  5
88
  8
OUTLINE
 62
   250
 10
390.0595
 20
-108.9813
 30
0.0
  0
VERTEX
  5
89
  8
OUTLINE
 62
   250
 10
389.2759
 20
-107.7553
 30
0.0
  0
VERTEX
  5
8A
  8
OUTLINE
 62
   250
 10
388.6293
 20
-106.3746
 30
0.0
  0
VERTEX
  5
8B
  8
OUTLINE
 62
   250
 10
388.1348
 20
-104.86
 30
0.0
  0
VERTEX
  5
8C
  8
OUTLINE
 62
   250
 10
388.1109
 20
-104.7972
 30
0.0
  0
VERTEX
  5
8D
  8
OUTLINE
 62
   250
 10
388.0683
 20
-104.7476
 30
0.0
  0
VERTEX
  5
8E
  8
OUTLINE
 62
   250
 10
388.0116
 20
-104.715
 30
0.0
  0
VERTEX
  5
8F
  8
OUTLINE
 62
   250
 10
387.9454
 20
-104.7033
 30
0.0
  0
VERTEX
  5
90
  8
OUTLINE
 62
   250
 10
387.8704
 20
-104.7184
 30
0.0
  0
VERTEX
  5
91
  8
OUTLINE
 62
   250
 10
387.8091
 20
-104.7598
 30
0.0
  0
VERTEX
  5
92
  8
OUTLINE
 62
   250
 10
387.7678
 20
-104.821
 30
0.0
  0
VERTEX
  5
93
  8
OUTLINE
 62
   250
 10
387.7526
 20
-104.8961
 30
0.0
  0
VERTEX
  5
94
  8
OUTLINE
 62
   250
 10
387.7616
 20
-104.9541
 30
0.0
  0
VERTEX
  5
95
  8
OUTLINE
 62
   250
 10
388.2784
 20
-106.5295
 30
0.0
  0
VERTEX
  5
96
  8
OUTLINE
 62
   250
 10
388.9562
 20
-107.9661
 30
0.0
  0
VERTEX
  5
97
  8
OUTLINE
 62
   250
 10
389.7792
 20
-109.2419
 30
0.0
  0
VERTEX
  5
98
  8
OUTLINE
 62
   250
 10
390.7314
 20
-110.3351
 30
0.0
  0
VERTEX
  5
99
  8
OUTLINE
 62
   250
 10
391.7969
 20
-111.2235
 30
0.0
  0
VERTEX
  5
9A
  8
OUTLINE
 62
   250
 10
392.9597
 20
-111.8853
 30
0.0
  0
VERTEX
  5
9B
  8
OUTLINE
 62
   250
 10
394.2041
 20
-112.2985
 30
0.0
  0
VERTEX
  5
9C
  8
OUTLINE
 62
   250
 10
395.5139
 20
-112.4411
 30
0.0
  0
VERTEX
  5
9D
  8
OUTLINE
 62
   250
 10
397.1754
 20
-112.2107
 30
0.0
  0
VERTEX
  5
9E
  8
OUTLINE
 62
   250
 10
398.723
 20
-111.5497
 30
0.0
  0
VERTEX
  5
9F
  8
OUTLINE
 62
   250
 10
400.1234
 20
-110.5037
 30
0.0
  0
VERTEX
  5
A0
  8
OUTLINE
 62
   250
 10
401.3436
 20
-109.1181
 30
0.0
  0
VERTEX
  5
A1
  8
OUTLINE
 62
   250
 10
402.3503
 20
-107.4385
 30
0.0
  0
VERTEX
  5
A2
  8
OUTLINE
 62
   250
 10
403.1104
 20
-105.5103
 30
0.0
  0
VERTEX
  5
A3
  8
OUTLINE
 62
   250
 10
403.5908
 20
-103.379
 30
0.0
  0
VERTEX
  5
A4
  8
OUTLINE
 62
   250
 10
403.7583
 20
-101.0902
 30
0.0
  0
VERTEX
  5
A5
  8
OUTLINE
 62
   250
 10
403.5908
 20
-98.8013
 30
0.0
  0
VERTEX
  5
A6
  8
OUTLINE
 62
   250
 10
403.1104
 20
-96.6699
 30
0.0
  0
VERTEX
  5
A7
  8
OUTLINE
 62
   250
 10
402.3503
 20
-94.7415
 30
0.0
  0
VERTEX
  5
A8
  8
OUTLINE
 62
   250
 10
401.3436
 20
-93.0616
 30
0.0
  0
VERTEX
  5
A9
  8
OUTLINE
 62
   250
 10
400.1234
 20
-91.6757
 30
0.0
  0
VERTEX
  5
AA
  8
OUTLINE
 62
   250
 10
398.723
 20
-90.6295
 30
0.0
  0
VERTEX
  5
AB
  8
OUTLINE
 62
   250
 10
397.1754
 20
-89.9683
 30
0.0
  0
VERTEX
  5
AC
  8
OUTLINE
 62
   250
 10
395.5139
 20
-89.7378
 30
0.0
  0
VERTEX
  5
AD
  8
OUTLINE
 62
   250
 10
394.2041
 20
-89.8804
 30
0.0
  0
VERTEX
  5
AE
  8
OUTLINE
 62
   250
 10
392.9597
 20
-90.2936
 30
0.0
  0
VERTEX
  5
AF
  8
OUTLINE
 62
   250
 10
391.7969
 20
-90.9554
 30
0.0
  0
VERTEX
  5
B0
  8
OUTLINE
 62
   250
 10
390.7314
 20
-91.8438
 30
0.0
  0
VERTEX
  5
B1
  8
OUTLINE
 62
   250
 10
389.7792
 20
-92.937
 30
0.0
  0
VERTEX
  5
B2
  8
OUTLINE
 62
   250
 10
388.9562
 20
-94.2128
 30
0.0
  0
VERTEX
  5
B3
  8
OUTLINE
 62
   250
 10
388.2784
 20
-95.6494
 30
0.0
  0
VERTEX
  5
B4
  8
OUTLINE
 62
   250
 10
387.7616
 20
-97.2248
 30
0.0
  0
VERTEX
  5
B5
  8
OUTLINE
 62
   250
 10
387.7526
 20
-97.2829
 30
0.0
  0
VERTEX
  5
B6
  8
OUTLINE
 62
   250
 10
387.7678
 20
-97.358
 30
0.0
  0
VERTEX
  5
B7
  8
OUTLINE
 62
   250
 10
387.8091
 20
-97.4192
 30
0.0
  0
VERTEX
  5
B8
  8
OUTLINE
 62
   250
 10
387.8704
 20
-97.4606
 30
0.0
  0
VERTEX
  5
B9
  8
OUTLINE
 62
   250
 10
387.9454
 20
-97.4757
 30
0.0
  0
VERTEX
  5
BA
  8
OUTLINE
 62
   250
 10
388.0116
 20
-97.464
 30
0.0
  0
VERTEX
  5
BB
  8
OUTLINE
 62
   250
 10
388.0683
 20
-97.4314
 30
0.0
  0
VERTEX
  5
BC
  8
OUTLINE
 62
   250
 10
388.1109
 20
-97.3818
 30
0.0
  0
VERTEX
  5
BD
  8
OUTLINE
 62
   250
 10
388.1348
 20
-97.319
 30
0.0
  0
VERTEX
  5
BE
  8
OUTLINE
 62
   250
 10
388.63
 20
-95.8032
 30
0.0
  0
VERTEX
  5
BF
  8
OUTLINE
 62
   250
 10
389.2772
 20
-94.4222
 30
0.0
  0
VERTEX
  5
C0
  8
OUTLINE
 62
   250
 10
390.0614
 20
-93.1966
 30
0.0
  0
VERTEX
  5
C1
  8
OUTLINE
 62
   250
 10
390.9677
 20
-92.1474
 30
0.0
  0
VERTEX
  5
C2
  8
OUTLINE
 62
   250
 10
391.9811
 20
-91.2951
 30
0.0
  0
VERTEX
  5
C3
  8
OUTLINE
 62
   250
 10
393.0866
 20
-90.6606
 30
0.0
  0
VERTEX
  5
C4
  8
OUTLINE
 62
   250
 10
394.2692
 20
-90.2647
 30
0.0
  0
VERTEX
  5
C5
  8
OUTLINE
 62
   250
 10
395.5139
 20
-90.1281
 30
0.0
  0
VERTEX
  5
C6
  8
OUTLINE
 62
   250
 10
397.0973
 20
-90.3511
 30
0.0
  0
VERTEX
  5
C7
  8
OUTLINE
 62
   250
 10
398.5721
 20
-90.9906
 30
0.0
  0
VERTEX
  5
C8
  8
OUTLINE
 62
   250
 10
399.9067
 20
-92.0026
 30
0.0
  0
VERTEX
  5
C9
  8
OUTLINE
 62
   250
 10
401.0696
 20
-93.3427
 30
0.0
  0
VERTEX
  5
CA
  8
OUTLINE
 62
   250
 10
402.0291
 20
-94.967
 30
0.0
  0
VERTEX
  5
CB
  8
OUTLINE
 62
   250
 10
402.7536
 20
-96.8311
 30
0.0
  0
VERTEX
  5
CC
  8
OUTLINE
 62
   250
 10
403.2114
 20
-98.8911
 30
0.0
  0
VERTEX
  5
CD
  8
OUTLINE
 62
   250
 10
403.3711
 20
-101.1026
 30
0.0
  0
VERTEX
  5
CE
  8
OUTLINE
 62
   250
 10
403.3711
 20
-101.0795
 30
0.0
  0
SEQEND
  5
128
  8
OUTLINE
 62
   250
  0
POLYLINE
  5
71
  8
OUTLINE
 62
   250
 66
     1
 10
0.0
 20
0.0
 30
0.0
 70
     1
  0
VERTEX
  5
CF
  8
OUTLINE
 62
   250
 10
403.3711
 20
-101.0795
 30
0.0
  0
VERTEX
  5
D0
  8
OUTLINE
 62
   250
 10
403.3711
 20
-101.0795
 30
0.0
  0
VERTEX
  5
D1
  8
OUTLINE
 62
   250
 10
403.3711
 20
-101.0795
 30
0.0
  0
SEQEND
  5
129
  8
OUTLINE
 62
   250
  0
POLYLINE
  5
72
  8
OUTLINE
 62
   250
 66
     1
 10
0.0
 20
0.0
 30
0.0
  0
VERTEX
  5
D2
  8
OUTLINE
 62
   250
 10
403.3711
 20
-101.0795
 30
0.0
  0
VERTEX
  5
D3
  8
OUTLINE
 62
   250
 10
403.2114
 20
-103.2915
 30
0.0
  0
VERTEX
  5
D4
  8
OUTLINE
 62
   250
 10
402.7536
 20
-105.3516
 30
0.0
  0
VERTEX
  5
D5
  8
OUTLINE
 62
   250
 10
402.0291
 20
-107.2158
 30
0.0
  0
VERTEX
  5
D6
  8
OUTLINE
 62
   250
 10
401.0696
 20
-108.8399
 30
0.0
  0
VERTEX
  5
D7
  8
OUTLINE
 62
   250
 10
399.9067
 20
-110.1799
 30
0.0
  0
VERTEX
  5
D8
  8
OUTLINE
 62
   250
 10
398.5721
 20
-111.1917
 30
0.0
  0
VERTEX
  5
D9
  8
OUTLINE
 62
   250
 10
397.0973
 20
-111.8311
 30
0.0
  0
VERTEX
  5
DA
  8
OUTLINE
 62
   250
 10
395.5139
 20
-112.054
 30
0.0
  0
VERTEX
  5
DB
  8
OUTLINE
 62
   250
 10
394.2678
 20
-111.9171
 30
0.0
  0
VERTEX
  5
DC
  8
OUTLINE
 62
   250
 10
393.0844
 20
-111.5204
 30
0.0
  0
VERTEX
  5
DD
  8
OUTLINE
 62
   250
 10
391.9787
 20
-110.8848
 30
0.0
  0
VERTEX
  5
DE
  8
OUTLINE
 62
   250
 10
390.9654
 20
-110.0315
 30
0.0
  0
VERTEX
  5
DF
  8
OUTLINE
 62
   250
 10
390.0595
 20
-108.9813
 30
0.0
  0
VERTEX
  5
E0
  8
OUTLINE
 62
   250
 10
389.2759
 20
-107.7553
 30
0.0
  0
VERTEX
  5
E1
  8
OUTLINE
 62
   250
 10
388.6293
 20
-106.3746
 30
0.0
  0
VERTEX
  5
E2
  8
OUTLINE
 62
   250
 10
388.1348
 20
-104.86
 30
0.0
  0
VERTEX
  5
E3
  8
OUTLINE
 62
   250
 10
388.1109
 20
-104.7972
 30
0.0
  0
VERTEX
  5
E4
  8
OUTLINE
 62
   250
 10
388.0683
 20
-104.7476
 30
0.0
  0
VERTEX
  5
E5
  8
OUTLINE
 62
   250
 10
388.0116
 20
-104.715
 30
0.0
  0
VERTEX
  5
E6
  8
OUTLINE
 62
   250
 10
387.9454
 20
-104.7033
 30
0.0
  0
VERTEX
  5
E7
  8
OUTLINE
 62
   250
 10
387.8704
 20
-104.7184
 30
0.0
  0
VERTEX
  5
E8
  8
OUTLINE
 62
   250
 10
387.8091
 20
-104.7598
 30
0.0
  0
VERTEX
  5
E9
  8
OUTLINE
 62
   250
 10
387.7678
 20
-104.821
 30
0.0
  0
VERTEX
  5
EA
  8
OUTLINE
 62
   250
 10
387.7526
 20
-104.8961
 30
0.0
  0
VERTEX
  5
EB
  8
OUTLINE
 62
   250
 10
387.7616
 20
-104.9541
 30
0.0
  0
VERTEX
  5
EC
  8
OUTLINE
 62
   250
 10
388.2784
 20
-106.5295
 30
0.0
  0
VERTEX
  5
ED
  8
OUTLINE
 62
   250
 10
388.9562
 20
-107.9661
 30
0.0
  0
VERTEX
  5
EE
  8
OUTLINE
 62
   250
 10
389.7792
 20
-109.2419
 30
0.0
  0
VERTEX
  5
EF
  8
OUTLINE
 62
   250
 10
390.7314
 20
-110.3351
 30
0.0
  0
VERTEX
  5
F0
  8
OUTLINE
 62
   250
 10
391.7969
 20
-111.2235
 30
0.0
  0
VERTEX
  5
F1
  8
OUTLINE
 62
   250
 10
392.9597
 20
-111.8853
 30
0.0
  0
VERTEX
  5
F2
  8
OUTLINE
 62
   250
 10
394.2041
 20
-112.2985
 30
0.0
  0
VERTEX
  5
F3
  8
OUTLINE
 62
   250
 10
395.5139
 20
-112.4411
 30
0.0
  0
VERTEX
  5
F4
  8
OUTLINE
 62
   250
 10
397.1754
 20
-112.2107
 30
0.0
  0
VERTEX
  5
F5
  8
OUTLINE
 62
   250
 10
398.723
 20
-111.5497
 30
0.0
  0
VERTEX
  5
F6
  8
OUTLINE
 62
   250
 10
400.1234
 20
-110.5037
 30
0.0
  0
VERTEX
  5
F7
  8
OUTLINE
 62
   250
 10
401.3436
 20
-109.1181
 30
0.0
  0
VERTEX
  5
F8
  8
OUTLINE
 62
   250
 10
402.3503
 20
-107.4385
 30
0.0
  0
VERTEX
  5
F9
  8
OUTLINE
 62
   250
 10
403.1104
 20
-105.5103
 30
0.0
  0
VERTEX
  5
FA
  8
OUTLINE
 62
   250
 10
403.5908
 20
-103.379
 30
0.0
  0
VERTEX
  5
FB
  8
OUTLINE
 62
   250
 10
403.7583
 20
-101.0902
 30
0.0
  0
VERTEX
  5
FC
  8
OUTLINE
 62
   250
 10
403.5908
 20
-98.8013
 30
0.0
  0
VERTEX
  5
FD
  8
OUTLINE
 62
   250
 10
403.1104
 20
-96.6699
 30
0.0
  0
VERTEX
  5
FE
  8
OUTLINE
 62
   250
 10
402.3503
 20
-94.7415
 30
0.0
  0
VERTEX
  5
FF
  8
OUTLINE
 62
   250
 10
401.3436
 20
-93.0616
 30
0.0
  0
VERTEX
  5
100
  8
OUTLINE
 62
   250
 10
400.1234
 20
-91.6757
 30
0.0
  0
VERTEX
  5
101
  8
OUTLINE
 62
   250
 10
398.723
 20
-90.6295
 30
0.0
  0
VERTEX
  5
102
  8
OUTLINE
 62
   250
 10
397.1754
 20
-89.9683
 30
0.0
  0
VERTEX
  5
103
  8
OUTLINE
 62
   250
 10
395.5139
 20
-89.7378
 30
0.0
  0
VERTEX
  5
104
  8
OUTLINE
 62
   250
 10
394.2041
 20
-89.8804
 30
0.0
  0
VERTEX
  5
105
  8
OUTLINE
 62
   250
 10
392.9597
 20
-90.2936
 30
0.0
  0
VERTEX
  5
106
  8
OUTLINE
 62
   250
 10
391.7969
 20
-90.9554
 30
0.0
  0
VERTEX
  5
107
  8
OUTLINE
 62
   250
 10
390.7314
 20
-91.8438
 30
0.0
  0
VERTEX
  5
108
  8
OUTLINE
 62
   250
 10
389.7792
 20
-92.937
 30
0.0
  0
VERTEX
  5
109
  8
OUTLINE
 62
   250
 10
388.9562
 20
-94.2128
 30
0.0
  0
VERTEX
  5
10A
  8
OUTLINE
 62
   250
 10
388.2784
 20
-95.6494
 30
0.0
  0
VERTEX
  5
10B
  8
OUTLINE
 62
   250
 10
387.7616
 20
-97.2248
 30
0.0
  0
VERTEX
  5
10C
  8
OUTLINE
 62
   250
 10
387.7526
 20
-97.2829
 30
0.0
  0
VERTEX
  5
10D
  8
OUTLINE
 62
   250
 10
387.7678
 20
-97.358
 30
0.0
  0
VERTEX
  5
10E
  8
OUTLINE
 62
   250
 10
387.8091
 20
-97.4192
 30
0.0
  0
VERTEX
  5
10F
  8
OUTLINE
 62
   250
 10
387.8704
 20
-97.4606
 30
0.0
  0
VERTEX
  5
110
  8
OUTLINE
 62
   250
 10
387.9454
 20
-97.4757
 30
0.0
  0
VERTEX
  5
111
  8
OUTLINE
 62
   250
 10
388.0116
 20
-97.464
 30
0.0
  0
VERTEX
  5
112
  8
OUTLINE
 62
   250
 10
388.0683
 20
-97.4314
 30
0.0
  0
VERTEX
  5
113
  8
OUTLINE
 62
   250
 10
388.1109
 20
-97.3818
 30
0.0
  0
VERTEX
  5
114
  8
OUTLINE
 62
   250
 10
388.1348
 20
-97.319
 30
0.0
  0
VERTEX
  5
115
  8
OUTLINE
 62
   250
 10
388.63
 20
-95.8032
 30
0.0
  0
VERTEX
  5
116
  8
OUTLINE
 62
   250
 10
389.2772
 20
-94.4222
 30
0.0
  0
VERTEX
  5
117
  8
OUTLINE
 62
   250
 10
390.0614
 20
-93.1966
 30
0.0
  0
VERTEX
  5
118
  8
OUTLINE
 62
   250
 10
390.9677
 20
-92.1474
 30
0.0
  0
VERTEX
  5
119
  8
OUTLINE
 62
   250
 10
391.9811
 20
-91.2951
 30
0.0
  0
VERTEX
  5
11A
  8
OUTLINE
 62
   250
 10
393.0866
 20
-90.6606
 30
0.0
  0
VERTEX
  5
11B
  8
OUTLINE
 62
   250
 10
394.2692
 20
-90.2647
 30
0.0
  0
VERTEX
  5
11C
  8
OUTLINE
 62
   250
 10
395.5139
 20
-90.1281
 30
0.0
  0
VERTEX
  5
11D
  8
OUTLINE
 62
   250
 10
397.0973
 20
-90.3511
 30
0.0
  0
VERTEX
  5
11E
  8
OUTLINE
 62
   250
 10
398.5721
 20
-90.9906
 30
0.0
  0
VERTEX
  5
11F
  8
OUTLINE
 62
   250
 10
399.9067
 20
-92.0026
 30
0.0
  0
VERTEX
  5
120
  8
OUTLINE
 62
   250
 10
401.0696
 20
-93.3427
 30
0.0
  0
VERTEX
  5
121
  8
OUTLINE
 62
   250
 10
402.0291
 20
-94.967
 30
0.0
  0
VERTEX
  5
122
  8
OUTLINE
 62
   250
 10
402.7536
 20
-96.8311
 30
0.0
  0
VERTEX
  5
123
  8
OUTLINE
 62
   250
 10
403.2114
 20
-98.8911
 30
0.0
  0
VERTEX
  5
124
  8
OUTLINE
 62
   250
 10
403.3711
 20
-101.1026
 30
0.0
  0
SEQEND
  5
12A
  8
OUTLINE
 62
   250
  0
POLYLINE
  5
73
  8
OUTLINE
 62
   250
 66
     1
 10
0.0
 20
0.0
 30
0.0
 70
     1
  0
VERTEX
  5
125
  8
OUTLINE
 62
   250
 10
403.3711
 20
-101.0795
 30
0.0
  0
VERTEX
  5
126
  8
OUTLINE
 62
   250
 10
403.3711
 20
-101.0795
 30
0.0
  0
VERTEX
  5
127
  8
OUTLINE
 62
   250
 10
403.3711
 20
-101.0795
 30
0.0
  0
SEQEND
  5
12B
  8
OUTLINE
 62
   250
  0
ENDSEC
  0
EOF
