  0
SECTION
  2
HEADER
  9
$ACADVER
  1
AC1004
  9
$INSBASE
 10
0.0
 20
0.0
  9
$EXTMIN
 10
155.9105
 20
-69.4232
  9
$EXTMAX
 10
160.2948
 20
-36.2894
  9
$LIMMIN
 10
0.0
 20
0.0
  9
$LIMMAX
 10
12.0
 20
9.0
  9
$ORTHOMODE
 70
     0
  9
$REGENMODE
 70
     1
  9
$FILLMODE
 70
     1
  9
$QTEXTMODE
 70
     0
  9
$DRAGMODE
 70
     2
  9
$LTSCALE
 40
1.0
  9
$OSMODE
 70
    37
  9
$ATTMODE
 70
     1
  9
$TEXTSIZE
 40
0.2
  9
$TRACEWID
 40
0.05
  9
$TEXTSTYLE
  7
STANDARD
  9
$CLAYER
  8
0
  9
$CELTYPE
  6
BYLAYER
  9
$CECOLOR
 62
   256
  9
$DIMSCALE
 40
1.0
  9
$DIMASZ
 40
0.18
  9
$DIMEXO
 40
0.0625
  9
$DIMDLI
 40
0.38
  9
$DIMRND
 40
0.0
  9
$DIMDLE
 40
0.0
  9
$DIMEXE
 40
0.18
  9
$DIMTP
 40
0.0
  9
$DIMTM
 40
0.0
  9
$DIMTXT
 40
0.18
  9
$DIMCEN
 40
0.09
  9
$DIMTSZ
 40
0.0
  9
$DIMTOL
 70
     0
  9
$DIMLIM
 70
     0
  9
$DIMTIH
 70
     1
  9
$DIMTOH
 70
     1
  9
$DIMSE1
 70
     0
  9
$DIMSE2
 70
     0
  9
$DIMTAD
 70
     0
  9
$DIMZIN
 70
     0
  9
$DIMBLK
  1

  9
$DIMASO
 70
     1
  9
$DIMSHO
 70
     1
  9
$DIMPOST
  1

  9
$DIMAPOST
  1

  9
$DIMALT
 70
     0
  9
$DIMALTD
 70
     2
  9
$DIMALTF
 40
25.4
  9
$DIMLFAC
 40
1.0
  9
$DIMTOFL
 70
     0
  9
$DIMTVP
 40
0.0
  9
$DIMTIX
 70
     0
  9
$DIMSOXD
 70
     0
  9
$DIMSAH
 70
     0
  9
$DIMBLK1
  1

  9
$DIMBLK2
  1

  9
$LUNITS
 70
     2
  9
$LUPREC
 70
     4
  9
$SKETCHINC
 40
0.1
  9
$FILLETRAD
 40
0.5
  9
$AUNITS
 70
     0
  9
$AUPREC
 70
     0
  9
$MENU
  1
.
  9
$ELEVATION
 40
0.0
  9
$THICKNESS
 40
0.0
  9
$LIMCHECK
 70
     0
  9
$CHAMFERA
 40
0.0
  9
$CHAMFERB
 40
0.0
  9
$SKPOLY
 70
     0
  9
$TDCREATE
 40
2458636.813510602
  9
$TDUPDATE
 40
2458636.813510637
  9
$TDINDWG
 40
0.0000000116
  9
$TDUSRTIMER
 40
0.0000000116
  9
$USRTIMER
 70
     1
  9
$ANGBASE
 50
0.0
  9
$ANGDIR
 70
     0
  9
$PDMODE
 70
     0
  9
$PDSIZE
 40
0.0
  9
$PLINEWID
 40
0.0
  9
$COORDS
 70
     1
  9
$SPLFRAME
 70
     0
  9
$SPLINETYPE
 70
     6
  9
$SPLINESEGS
 70
     8
  9
$ATTDIA
 70
     0
  9
$ATTREQ
 70
     1
  9
$SURFTAB1
 70
     6
  9
$SURFTAB2
 70
     6
  9
$SURFTYPE
 70
     6
  9
$SURFU
 70
     6
  9
$SURFV
 70
     6
  9
$UCSNAME
  2

  9
$UCSORG
 10
0.0
 20
0.0
 30
0.0
  9
$UCSXDIR
 10
1.0
 20
0.0
 30
0.0
  9
$UCSYDIR
 10
0.0
 20
1.0
 30
0.0
  9
$USERI1
 70
     0
  9
$USERI2
 70
     0
  9
$USERI3
 70
     0
  9
$USERI4
 70
     0
  9
$USERI5
 70
     0
  9
$USERR1
 40
0.0
  9
$USERR2
 40
0.0
  9
$USERR3
 40
0.0
  9
$USERR4
 40
0.0
  9
$USERR5
 40
0.0
  9
$WORLDVIEW
 70
     1
  0
ENDSEC
  0
SECTION
  2
TABLES
  0
TABLE
  2
LTYPE
 70
     1
  0
LTYPE
  2
CONTINUOUS
 70
     0
  3
Solid line
 72
    65
 73
     0
 40
0.0
  0
ENDTAB
  0
TABLE
  2
LAYER
 70
     2
  0
LAYER
  2
0
 70
     0
 62
     7
  6
CONTINUOUS
  0
LAYER
  2
TEXT
 70
     0
 62
     7
  6
CONTINUOUS
  0
ENDTAB
  0
TABLE
  2
STYLE
 70
     1
  0
STYLE
  2
STANDARD
 70
     0
 40
0.0
 41
1.0
 50
0.0
 71
     0
 42
0.2
  3
txt
  4

  0
ENDTAB
  0
TABLE
  2
VIEW
 70
     0
  0
ENDTAB
  0
ENDSEC
  0
SECTION
  2
BLOCKS
  0
ENDSEC
  0
SECTION
  2
ENTITIES
  0
POLYLINE
  8
TEXT
 62
   250
 66
     1
 70
     1
  0
VERTEX
  8
TEXT
 62
   250
 10
159.1711
 20
-66.7006
  0
VERTEX
  8
TEXT
 62
   250
 10
159.0423
 20
-67.3812
  0
VERTEX
  8
TEXT
 62
   250
 10
157.0367
 20
-68.4116
  0
VERTEX
  8
TEXT
 62
   250
 10
158.7845
 20
-68.7425
  0
VERTEX
  8
TEXT
 62
   250
 10
158.6557
 20
-69.4232
  0
VERTEX
  8
TEXT
 62
   250
 10
155.9105
 20
-68.9035
  0
VERTEX
  8
TEXT
 62
   250
 10
156.0394
 20
-68.2228
  0
VERTEX
  8
TEXT
 62
   250
 10
158.0494
 20
-67.1932
  0
VERTEX
  8
TEXT
 62
   250
 10
156.297
 20
-66.8615
  0
VERTEX
  8
TEXT
 62
   250
 10
156.4259
 20
-66.1809
  0
VERTEX
  8
TEXT
 62
   250
 10
159.1711
 20
-66.7006
  0
SEQEND
  8
TEXT
 62
   250
  0
POLYLINE
  8
TEXT
 62
   250
 66
     1
 70
     1
  0
VERTEX
  8
TEXT
 62
   250
 10
156.7032
 20
-64.3357
  0
VERTEX
  8
TEXT
 62
   250
 10
156.9071
 20
-62.7554
  0
VERTEX
  8
TEXT
 62
   250
 10
157.4426
 20
-62.2448
  0
VERTEX
  8
TEXT
 62
   250
 10
157.8074
 20
-62.2919
  0
VERTEX
  8
TEXT
 62
   250
 10
157.7258
 20
-62.924
  0
VERTEX
  8
TEXT
 62
   250
 10
157.5411
 20
-62.9001
  0
VERTEX
  8
TEXT
 62
   250
 10
157.2947
 20
-63.0989
  0
VERTEX
  8
TEXT
 62
   250
 10
157.1769
 20
-64.0126
  0
VERTEX
  8
TEXT
 62
   250
 10
157.3514
 20
-64.3704
  0
VERTEX
  8
TEXT
 62
   250
 10
158.8522
 20
-64.5641
  0
VERTEX
  8
TEXT
 62
   250
 10
159.0472
 20
-64.254
  0
VERTEX
  8
TEXT
 62
   250
 10
159.1652
 20
-63.3403
  0
VERTEX
  8
TEXT
 62
   250
 10
159.042
 20
-63.0938
  0
VERTEX
  8
TEXT
 62
   250
 10
158.7879
 20
-63.061
  0
VERTEX
  8
TEXT
 62
   250
 10
158.8696
 20
-62.429
  0
VERTEX
  8
TEXT
 62
   250
 10
159.2899
 20
-62.4832
  0
VERTEX
  8
TEXT
 62
   250
 10
159.6654
 20
-63.1743
  0
VERTEX
  8
TEXT
 62
   250
 10
159.4694
 20
-64.6927
  0
VERTEX
  8
TEXT
 62
   250
 10
158.9298
 20
-65.2727
  0
VERTEX
  8
TEXT
 62
   250
 10
157.0826
 20
-65.0343
  0
VERTEX
  8
TEXT
 62
   250
 10
156.7032
 20
-64.3357
  0
SEQEND
  8
TEXT
 62
   250
  0
POLYLINE
  8
TEXT
 62
   250
 66
     1
 70
     1
  0
VERTEX
  8
TEXT
 62
   250
 10
157.1795
 20
-60.3264
  0
VERTEX
  8
TEXT
 62
   250
 10
157.2925
 20
-58.7371
  0
VERTEX
  8
TEXT
 62
   250
 10
157.7977
 20
-58.1965
  0
VERTEX
  8
TEXT
 62
   250
 10
158.1646
 20
-58.2226
  0
VERTEX
  8
TEXT
 62
   250
 10
158.1193
 20
-58.8583
  0
VERTEX
  8
TEXT
 62
   250
 10
157.9337
 20
-58.8451
  0
VERTEX
  8
TEXT
 62
   250
 10
157.6991
 20
-59.0577
  0
VERTEX
  8
TEXT
 62
   250
 10
157.6339
 20
-59.9767
  0
VERTEX
  8
TEXT
 62
   250
 10
157.8286
 20
-60.3239
  0
VERTEX
  8
TEXT
 62
   250
 10
159.3382
 20
-60.4311
  0
VERTEX
  8
TEXT
 62
   250
 10
159.515
 20
-60.1103
  0
VERTEX
  8
TEXT
 62
   250
 10
159.5803
 20
-59.1913
  0
VERTEX
  8
TEXT
 62
   250
 10
159.4431
 20
-58.9523
  0
VERTEX
  8
TEXT
 62
   250
 10
159.1877
 20
-58.9342
  0
VERTEX
  8
TEXT
 62
   250
 10
159.2329
 20
-58.2985
  0
VERTEX
  8
TEXT
 62
   250
 10
159.6555
 20
-58.3285
  0
VERTEX
  8
TEXT
 62
   250
 10
160.0702
 20
-58.9969
  0
VERTEX
  8
TEXT
 62
   250
 10
159.9617
 20
-60.524
  0
VERTEX
  8
TEXT
 62
   250
 10
159.4563
 20
-61.1341
  0
VERTEX
  8
TEXT
 62
   250
 10
157.5985
 20
-61.0021
  0
VERTEX
  8
TEXT
 62
   250
 10
157.1795
 20
-60.3264
  0
SEQEND
  8
TEXT
 62
   250
  0
POLYLINE
  8
TEXT
 62
   250
 66
     1
 70
     1
  0
VERTEX
  8
TEXT
 62
   250
 10
158.5877
 20
-56.91
  0
VERTEX
  8
TEXT
 62
   250
 10
158.6359
 20
-55.7749
  0
VERTEX
  8
TEXT
 62
   250
 10
159.0593
 20
-55.7929
  0
VERTEX
  8
TEXT
 62
   250
 10
159.0109
 20
-56.928
  0
VERTEX
  8
TEXT
 62
   250
 10
158.5877
 20
-56.91
  0
SEQEND
  8
TEXT
 62
   250
  0
POLYLINE
  8
TEXT
 62
   250
 66
     1
 70
     1
  0
VERTEX
  8
TEXT
 62
   250
 10
157.4877
 20
-54.4189
  0
VERTEX
  8
TEXT
 62
   250
 10
157.5012
 20
-53.456
  0
VERTEX
  8
TEXT
 62
   250
 10
160.2948
 20
-53.4955
  0
VERTEX
  8
TEXT
 62
   250
 10
160.2866
 20
-54.0773
  0
VERTEX
  8
TEXT
 62
   250
 10
157.9213
 20
-54.0438
  0
VERTEX
  8
TEXT
 62
   250
 10
157.916
 20
-54.4249
  0
VERTEX
  8
TEXT
 62
   250
 10
157.4877
 20
-54.4189
  0
SEQEND
  8
TEXT
 62
   250
  0
POLYLINE
  8
TEXT
 62
   250
 66
     1
 70
     1
  0
VERTEX
  8
TEXT
 62
   250
 10
157.5015
 20
-52.1497
  0
VERTEX
  8
TEXT
 62
   250
 10
157.4627
 20
-49.4135
  0
VERTEX
  8
TEXT
 62
   250
 10
157.8444
 20
-49.4081
  0
VERTEX
  8
TEXT
 62
   250
 10
160.2789
 20
-50.9671
  0
VERTEX
  8
TEXT
 62
   250
 10
160.2883
 20
-51.6251
  0
VERTEX
  8
TEXT
 62
   250
 10
157.9009
 20
-50.107
  0
VERTEX
  8
TEXT
 62
   250
 10
157.9298
 20
-52.1436
  0
VERTEX
  8
TEXT
 62
   250
 10
157.5015
 20
-52.1497
  0
SEQEND
  8
TEXT
 62
   250
  0
POLYLINE
  8
TEXT
 62
   250
 66
     1
 70
     1
  0
VERTEX
  8
TEXT
 62
   250
 10
157.341
 20
-47.5462
  0
VERTEX
  8
TEXT
 62
   250
 10
157.2322
 20
-46.019
  0
VERTEX
  8
TEXT
 62
   250
 10
157.6143
 20
-45.3529
  0
VERTEX
  8
TEXT
 62
   250
 10
159.5417
 20
-45.2156
  0
VERTEX
  8
TEXT
 62
   250
 10
160.019
 20
-45.8205
  0
VERTEX
  8
TEXT
 62
   250
 10
160.1279
 20
-47.3477
  0
VERTEX
  8
TEXT
 62
   250
 10
159.7415
 20
-48.0211
  0
VERTEX
  8
TEXT
 62
   250
 10
157.8141
 20
-48.1584
  0
VERTEX
  8
TEXT
 62
   250
 10
157.341
 20
-47.5462
  0
SEQEND
  8
TEXT
 62
   250
  0
POLYLINE
  8
TEXT
 62
   250
 66
     1
 70
     1
  0
VERTEX
  8
TEXT
 62
   250
 10
157.982
 20
-47.5005
  0
VERTEX
  8
TEXT
 62
   250
 10
159.4868
 20
-47.3933
  0
VERTEX
  8
TEXT
 62
   250
 10
159.6737
 20
-47.0676
  0
VERTEX
  8
TEXT
 62
   250
 10
159.6097
 20
-46.1692
  0
VERTEX
  8
TEXT
 62
   250
 10
159.3781
 20
-45.8662
  0
VERTEX
  8
TEXT
 62
   250
 10
157.8731
 20
-45.9734
  0
VERTEX
  8
TEXT
 62
   250
 10
157.6821
 20
-46.3065
  0
VERTEX
  8
TEXT
 62
   250
 10
157.7462
 20
-47.2048
  0
VERTEX
  8
TEXT
 62
   250
 10
157.982
 20
-47.5005
  0
SEQEND
  8
TEXT
 62
   250
  0
POLYLINE
  8
TEXT
 62
   250
 66
     1
 70
     1
  0
VERTEX
  8
TEXT
 62
   250
 10
157.0463
 20
-44.0713
  0
VERTEX
  8
TEXT
 62
   250
 10
156.9503
 20
-43.1131
  0
VERTEX
  8
TEXT
 62
   250
 10
159.7304
 20
-42.835
  0
VERTEX
  8
TEXT
 62
   250
 10
159.7882
 20
-43.4139
  0
VERTEX
  8
TEXT
 62
   250
 10
157.4345
 20
-43.6494
  0
VERTEX
  8
TEXT
 62
   250
 10
157.4725
 20
-44.0287
  0
VERTEX
  8
TEXT
 62
   250
 10
157.0463
 20
-44.0713
  0
SEQEND
  8
TEXT
 62
   250
  0
POLYLINE
  8
TEXT
 62
   250
 66
     1
 70
     1
  0
VERTEX
  8
TEXT
 62
   250
 10
157.9471
 20
-41.6684
  0
VERTEX
  8
TEXT
 62
   250
 10
157.8013
 20
-40.5417
  0
VERTEX
  8
TEXT
 62
   250
 10
158.2214
 20
-40.4873
  0
VERTEX
  8
TEXT
 62
   250
 10
158.3672
 20
-41.6141
  0
VERTEX
  8
TEXT
 62
   250
 10
157.9471
 20
-41.6684
  0
SEQEND
  8
TEXT
 62
   250
  0
POLYLINE
  8
TEXT
 62
   250
 66
     1
 70
     1
  0
VERTEX
  8
TEXT
 62
   250
 10
156.437
 20
-39.4867
  0
VERTEX
  8
TEXT
 62
   250
 10
156.0202
 20
-37.2882
  0
VERTEX
  8
TEXT
 62
   250
 10
156.3705
 20
-36.6365
  0
VERTEX
  8
TEXT
 62
   250
 10
158.2006
 20
-36.2894
  0
VERTEX
  8
TEXT
 62
   250
 10
158.7768
 20
-36.8288
  0
VERTEX
  8
TEXT
 62
   250
 10
159.182
 20
-38.9661
  0
VERTEX
  8
TEXT
 62
   250
 10
156.437
 20
-39.4867
  0
SEQEND
  8
TEXT
 62
   250
  0
POLYLINE
  8
TEXT
 62
   250
 66
     1
 70
     1
  0
VERTEX
  8
TEXT
 62
   250
 10
156.7289
 20
-38.7262
  0
VERTEX
  8
TEXT
 62
   250
 10
158.6274
 20
-38.3661
  0
VERTEX
  8
TEXT
 62
   250
 10
158.4106
 20
-37.2226
  0
VERTEX
  8
TEXT
 62
   250
 10
158.1552
 20
-36.9749
  0
VERTEX
  8
TEXT
 62
   250
 10
156.6774
 20
-37.2552
  0
VERTEX
  8
TEXT
 62
   250
 10
156.512
 20
-37.5827
  0
VERTEX
  8
TEXT
 62
   250
 10
156.7289
 20
-38.7262
  0
SEQEND
  8
TEXT
 62
   250
  0
ENDSEC
  0
EOF
