  0
SECTION
  2
HEADER
  9
$ACADVER
  1
AC1004
  9
$INSBASE
 10
0.0
 20
0.0
  9
$EXTMIN
 10
94.2293
 20
-109.791
  9
$EXTMAX
 10
174.6762
 20
4.1577
  9
$LIMMIN
 10
0.0
 20
0.0
  9
$LIMMAX
 10
12.0
 20
9.0
  9
$ORTHOMODE
 70
     0
  9
$REGENMODE
 70
     1
  9
$FILLMODE
 70
     1
  9
$QTEXTMODE
 70
     0
  9
$DRAGMODE
 70
     2
  9
$LTSCALE
 40
1.0
  9
$OSMODE
 70
    37
  9
$ATTMODE
 70
     1
  9
$TEXTSIZE
 40
0.2
  9
$TRACEWID
 40
0.05
  9
$TEXTSTYLE
  7
STANDARD
  9
$CLAYER
  8
0
  9
$CELTYPE
  6
BYLAYER
  9
$CECOLOR
 62
   256
  9
$DIMSCALE
 40
1.0
  9
$DIMASZ
 40
0.18
  9
$DIMEXO
 40
0.0625
  9
$DIMDLI
 40
0.38
  9
$DIMRND
 40
0.0
  9
$DIMDLE
 40
0.0
  9
$DIMEXE
 40
0.18
  9
$DIMTP
 40
0.0
  9
$DIMTM
 40
0.0
  9
$DIMTXT
 40
0.18
  9
$DIMCEN
 40
0.09
  9
$DIMTSZ
 40
0.0
  9
$DIMTOL
 70
     0
  9
$DIMLIM
 70
     0
  9
$DIMTIH
 70
     1
  9
$DIMTOH
 70
     1
  9
$DIMSE1
 70
     0
  9
$DIMSE2
 70
     0
  9
$DIMTAD
 70
     0
  9
$DIMZIN
 70
     0
  9
$DIMBLK
  1

  9
$DIMASO
 70
     1
  9
$DIMSHO
 70
     1
  9
$DIMPOST
  1

  9
$DIMAPOST
  1

  9
$DIMALT
 70
     0
  9
$DIMALTD
 70
     2
  9
$DIMALTF
 40
25.4
  9
$DIMLFAC
 40
1.0
  9
$DIMTOFL
 70
     0
  9
$DIMTVP
 40
0.0
  9
$DIMTIX
 70
     0
  9
$DIMSOXD
 70
     0
  9
$DIMSAH
 70
     0
  9
$DIMBLK1
  1

  9
$DIMBLK2
  1

  9
$LUNITS
 70
     2
  9
$LUPREC
 70
     4
  9
$SKETCHINC
 40
0.1
  9
$FILLETRAD
 40
0.5
  9
$AUNITS
 70
     0
  9
$AUPREC
 70
     0
  9
$MENU
  1
.
  9
$ELEVATION
 40
0.0
  9
$THICKNESS
 40
0.0
  9
$LIMCHECK
 70
     0
  9
$CHAMFERA
 40
0.0
  9
$CHAMFERB
 40
0.0
  9
$SKPOLY
 70
     0
  9
$TDCREATE
 40
2458636.813283067
  9
$TDUPDATE
 40
2458636.813283113
  9
$TDINDWG
 40
0.0000000116
  9
$TDUSRTIMER
 40
0.0000000116
  9
$USRTIMER
 70
     1
  9
$ANGBASE
 50
0.0
  9
$ANGDIR
 70
     0
  9
$PDMODE
 70
     0
  9
$PDSIZE
 40
0.0
  9
$PLINEWID
 40
0.0
  9
$COORDS
 70
     1
  9
$SPLFRAME
 70
     0
  9
$SPLINETYPE
 70
     6
  9
$SPLINESEGS
 70
     8
  9
$ATTDIA
 70
     0
  9
$ATTREQ
 70
     1
  9
$SURFTAB1
 70
     6
  9
$SURFTAB2
 70
     6
  9
$SURFTYPE
 70
     6
  9
$SURFU
 70
     6
  9
$SURFV
 70
     6
  9
$UCSNAME
  2

  9
$UCSORG
 10
0.0
 20
0.0
 30
0.0
  9
$UCSXDIR
 10
1.0
 20
0.0
 30
0.0
  9
$UCSYDIR
 10
0.0
 20
1.0
 30
0.0
  9
$USERI1
 70
     0
  9
$USERI2
 70
     0
  9
$USERI3
 70
     0
  9
$USERI4
 70
     0
  9
$USERI5
 70
     0
  9
$USERR1
 40
0.0
  9
$USERR2
 40
0.0
  9
$USERR3
 40
0.0
  9
$USERR4
 40
0.0
  9
$USERR5
 40
0.0
  9
$WORLDVIEW
 70
     1
  0
ENDSEC
  0
SECTION
  2
TABLES
  0
TABLE
  2
LTYPE
 70
     1
  0
LTYPE
  2
CONTINUOUS
 70
     0
  3
Solid line
 72
    65
 73
     0
 40
0.0
  0
ENDTAB
  0
TABLE
  2
LAYER
 70
     2
  0
LAYER
  2
0
 70
     0
 62
     7
  6
CONTINUOUS
  0
LAYER
  2
PHASER
 70
     0
 62
     7
  6
CONTINUOUS
  0
ENDTAB
  0
TABLE
  2
STYLE
 70
     1
  0
STYLE
  2
STANDARD
 70
     0
 40
0.0
 41
1.0
 50
0.0
 71
     0
 42
0.2
  3
txt
  4

  0
ENDTAB
  0
TABLE
  2
VIEW
 70
     0
  0
ENDTAB
  0
ENDSEC
  0
SECTION
  2
BLOCKS
  0
ENDSEC
  0
SECTION
  2
ENTITIES
  0
POLYLINE
  8
PHASER
 62
   250
 66
     1
 70
     1
  0
VERTEX
  8
PHASER
 62
   250
 10
172.5467
 20
-52.7667
  0
VERTEX
  8
PHASER
 62
   250
 10
171.7481
 20
-63.8311
  0
VERTEX
  8
PHASER
 62
   250
 10
169.4578
 20
-74.1359
  0
VERTEX
  8
PHASER
 62
   250
 10
165.8338
 20
-83.4607
  0
VERTEX
  8
PHASER
 62
   250
 10
161.0344
 20
-91.5848
  0
VERTEX
  8
PHASER
 62
   250
 10
155.2176
 20
-98.2876
  0
VERTEX
  8
PHASER
 62
   250
 10
148.5416
 20
-103.3484
  0
VERTEX
  8
PHASER
 62
   250
 10
141.1645
 20
-106.5467
  0
VERTEX
  8
PHASER
 62
   250
 10
133.2445
 20
-107.6618
  0
VERTEX
  8
PHASER
 62
   250
 10
127.0114
 20
-106.977
  0
VERTEX
  8
PHASER
 62
   250
 10
121.0921
 20
-104.9925
  0
VERTEX
  8
PHASER
 62
   250
 10
115.5611
 20
-101.8135
  0
VERTEX
  8
PHASER
 62
   250
 10
110.4927
 20
-97.545
  0
VERTEX
  8
PHASER
 62
   250
 10
105.9614
 20
-92.292
  0
VERTEX
  8
PHASER
 62
   250
 10
102.0416
 20
-86.1597
  0
VERTEX
  8
PHASER
 62
   250
 10
98.8076
 20
-79.2531
  0
VERTEX
  8
PHASER
 62
   250
 10
96.334
 20
-71.6772
  0
VERTEX
  8
PHASER
 62
   250
 10
96.2874
 20
-71.5129
  0
VERTEX
  8
PHASER
 62
   250
 10
96.2145
 20
-71.3628
  0
VERTEX
  8
PHASER
 62
   250
 10
96.1182
 20
-71.2292
  0
VERTEX
  8
PHASER
 62
   250
 10
96.0014
 20
-71.1146
  0
VERTEX
  8
PHASER
 62
   250
 10
95.867
 20
-71.0212
  0
VERTEX
  8
PHASER
 62
   250
 10
95.7177
 20
-70.9516
  0
VERTEX
  8
PHASER
 62
   250
 10
95.5567
 20
-70.9081
  0
VERTEX
  8
PHASER
 62
   250
 10
95.3866
 20
-70.8931
  0
VERTEX
  8
PHASER
 62
   250
 10
95.1923
 20
-70.9127
  0
VERTEX
  8
PHASER
 62
   250
 10
95.0113
 20
-70.9689
  0
VERTEX
  8
PHASER
 62
   250
 10
94.8474
 20
-71.0578
  0
VERTEX
  8
PHASER
 62
   250
 10
94.7047
 20
-71.1756
  0
VERTEX
  8
PHASER
 62
   250
 10
94.5869
 20
-71.3183
  0
VERTEX
  8
PHASER
 62
   250
 10
94.498
 20
-71.4822
  0
VERTEX
  8
PHASER
 62
   250
 10
94.4418
 20
-71.6632
  0
VERTEX
  8
PHASER
 62
   250
 10
94.4222
 20
-71.8575
  0
VERTEX
  8
PHASER
 62
   250
 10
94.4669
 20
-72.1476
  0
VERTEX
  8
PHASER
 62
   250
 10
97.0518
 20
-80.0279
  0
VERTEX
  8
PHASER
 62
   250
 10
100.4424
 20
-87.214
  0
VERTEX
  8
PHASER
 62
   250
 10
104.559
 20
-93.5958
  0
VERTEX
  8
PHASER
 62
   250
 10
109.322
 20
-99.0637
  0
VERTEX
  8
PHASER
 62
   250
 10
114.6516
 20
-103.5077
  0
VERTEX
  8
PHASER
 62
   250
 10
120.4684
 20
-106.818
  0
VERTEX
  8
PHASER
 62
   250
 10
126.6926
 20
-108.8848
  0
VERTEX
  8
PHASER
 62
   250
 10
133.2445
 20
-109.5981
  0
VERTEX
  8
PHASER
 62
   250
 10
141.5557
 20
-108.4454
  0
VERTEX
  8
PHASER
 62
   250
 10
149.2966
 20
-105.1392
  0
VERTEX
  8
PHASER
 62
   250
 10
156.3017
 20
-99.9069
  0
VERTEX
  8
PHASER
 62
   250
 10
162.4049
 20
-92.9762
  0
VERTEX
  8
PHASER
 62
   250
 10
167.4405
 20
-84.5747
  0
VERTEX
  8
PHASER
 62
   250
 10
171.2426
 20
-74.9298
  0
VERTEX
  8
PHASER
 62
   250
 10
173.6455
 20
-64.2692
  0
VERTEX
  8
PHASER
 62
   250
 10
174.4833
 20
-52.8205
  0
VERTEX
  8
PHASER
 62
   250
 10
173.6455
 20
-41.3714
  0
VERTEX
  8
PHASER
 62
   250
 10
171.2426
 20
-30.71
  0
VERTEX
  8
PHASER
 62
   250
 10
167.4405
 20
-21.0639
  0
VERTEX
  8
PHASER
 62
   250
 10
162.4049
 20
-12.6609
  0
VERTEX
  8
PHASER
 62
   250
 10
156.3017
 20
-5.7288
  0
VERTEX
  8
PHASER
 62
   250
 10
149.2966
 20
-0.4953
  0
VERTEX
  8
PHASER
 62
   250
 10
141.5557
 20
2.8118
  0
VERTEX
  8
PHASER
 62
   250
 10
133.2445
 20
3.9648
  0
VERTEX
  8
PHASER
 62
   250
 10
126.6926
 20
3.2515
  0
VERTEX
  8
PHASER
 62
   250
 10
120.4684
 20
1.1847
  0
VERTEX
  8
PHASER
 62
   250
 10
114.6516
 20
-2.1256
  0
VERTEX
  8
PHASER
 62
   250
 10
109.322
 20
-6.5696
  0
VERTEX
  8
PHASER
 62
   250
 10
104.559
 20
-12.0375
  0
VERTEX
  8
PHASER
 62
   250
 10
100.4424
 20
-18.4194
  0
VERTEX
  8
PHASER
 62
   250
 10
97.0518
 20
-25.6054
  0
VERTEX
  8
PHASER
 62
   250
 10
94.4669
 20
-33.4857
  0
VERTEX
  8
PHASER
 62
   250
 10
94.4222
 20
-33.7761
  0
VERTEX
  8
PHASER
 62
   250
 10
94.4418
 20
-33.9704
  0
VERTEX
  8
PHASER
 62
   250
 10
94.498
 20
-34.1514
  0
VERTEX
  8
PHASER
 62
   250
 10
94.5869
 20
-34.3153
  0
VERTEX
  8
PHASER
 62
   250
 10
94.7047
 20
-34.458
  0
VERTEX
  8
PHASER
 62
   250
 10
94.8474
 20
-34.5758
  0
VERTEX
  8
PHASER
 62
   250
 10
95.0113
 20
-34.6647
  0
VERTEX
  8
PHASER
 62
   250
 10
95.1923
 20
-34.7209
  0
VERTEX
  8
PHASER
 62
   250
 10
95.3866
 20
-34.7405
  0
VERTEX
  8
PHASER
 62
   250
 10
95.5567
 20
-34.7255
  0
VERTEX
  8
PHASER
 62
   250
 10
95.7177
 20
-34.682
  0
VERTEX
  8
PHASER
 62
   250
 10
95.8669
 20
-34.6124
  0
VERTEX
  8
PHASER
 62
   250
 10
96.0014
 20
-34.5191
  0
VERTEX
  8
PHASER
 62
   250
 10
96.1182
 20
-34.4045
  0
VERTEX
  8
PHASER
 62
   250
 10
96.2145
 20
-34.2709
  0
VERTEX
  8
PHASER
 62
   250
 10
96.2873
 20
-34.1208
  0
VERTEX
  8
PHASER
 62
   250
 10
96.3339
 20
-33.9566
  0
VERTEX
  8
PHASER
 62
   250
 10
98.8107
 20
-26.3747
  0
VERTEX
  8
PHASER
 62
   250
 10
102.048
 20
-19.4667
  0
VERTEX
  8
PHASER
 62
   250
 10
105.9709
 20
-13.3364
  0
VERTEX
  8
PHASER
 62
   250
 10
110.5043
 20
-8.0878
  0
VERTEX
  8
PHASER
 62
   250
 10
115.5733
 20
-3.8247
  0
VERTEX
  8
PHASER
 62
   250
 10
121.103
 20
-0.651
  0
VERTEX
  8
PHASER
 62
   250
 10
127.0183
 20
1.3294
  0
VERTEX
  8
PHASER
 62
   250
 10
133.2445
 20
2.0126
  0
VERTEX
  8
PHASER
 62
   250
 10
141.1645
 20
0.8972
  0
VERTEX
  8
PHASER
 62
   250
 10
148.5416
 20
-2.3019
  0
VERTEX
  8
PHASER
 62
   250
 10
155.2176
 20
-7.3637
  0
VERTEX
  8
PHASER
 62
   250
 10
161.0344
 20
-14.0673
  0
VERTEX
  8
PHASER
 62
   250
 10
165.8338
 20
-22.1919
  0
VERTEX
  8
PHASER
 62
   250
 10
169.4578
 20
-31.5165
  0
VERTEX
  8
PHASER
 62
   250
 10
171.7481
 20
-41.8204
  0
VERTEX
  8
PHASER
 62
   250
 10
172.5467
 20
-52.8825
  0
VERTEX
  8
PHASER
 62
   250
 10
172.5467
 20
-52.7667
  0
SEQEND
  8
PHASER
 62
   250
  0
POLYLINE
  8
PHASER
 62
   250
 66
     1
 70
     1
  0
VERTEX
  8
PHASER
 62
   250
 10
172.5467
 20
-52.7667
  0
VERTEX
  8
PHASER
 62
   250
 10
172.5467
 20
-52.7667
  0
VERTEX
  8
PHASER
 62
   250
 10
172.5467
 20
-52.7667
  0
SEQEND
  8
PHASER
 62
   250
  0
POLYLINE
  8
PHASER
 62
   250
 66
     1
  0
VERTEX
  8
PHASER
 62
   250
 10
172.5467
 20
-52.7667
  0
VERTEX
  8
PHASER
 62
   250
 10
171.7481
 20
-63.8311
  0
VERTEX
  8
PHASER
 62
   250
 10
169.4578
 20
-74.1359
  0
VERTEX
  8
PHASER
 62
   250
 10
165.8338
 20
-83.4607
  0
VERTEX
  8
PHASER
 62
   250
 10
161.0344
 20
-91.5848
  0
VERTEX
  8
PHASER
 62
   250
 10
155.2176
 20
-98.2876
  0
VERTEX
  8
PHASER
 62
   250
 10
148.5416
 20
-103.3484
  0
VERTEX
  8
PHASER
 62
   250
 10
141.1645
 20
-106.5467
  0
VERTEX
  8
PHASER
 62
   250
 10
133.2445
 20
-107.6618
  0
VERTEX
  8
PHASER
 62
   250
 10
127.0114
 20
-106.977
  0
VERTEX
  8
PHASER
 62
   250
 10
121.0921
 20
-104.9925
  0
VERTEX
  8
PHASER
 62
   250
 10
115.5611
 20
-101.8135
  0
VERTEX
  8
PHASER
 62
   250
 10
110.4927
 20
-97.545
  0
VERTEX
  8
PHASER
 62
   250
 10
105.9614
 20
-92.292
  0
VERTEX
  8
PHASER
 62
   250
 10
102.0416
 20
-86.1597
  0
VERTEX
  8
PHASER
 62
   250
 10
98.8076
 20
-79.2531
  0
VERTEX
  8
PHASER
 62
   250
 10
96.334
 20
-71.6772
  0
VERTEX
  8
PHASER
 62
   250
 10
96.2874
 20
-71.5129
  0
VERTEX
  8
PHASER
 62
   250
 10
96.2145
 20
-71.3628
  0
VERTEX
  8
PHASER
 62
   250
 10
96.1182
 20
-71.2292
  0
VERTEX
  8
PHASER
 62
   250
 10
96.0014
 20
-71.1146
  0
VERTEX
  8
PHASER
 62
   250
 10
95.867
 20
-71.0212
  0
VERTEX
  8
PHASER
 62
   250
 10
95.7177
 20
-70.9516
  0
VERTEX
  8
PHASER
 62
   250
 10
95.5567
 20
-70.9081
  0
VERTEX
  8
PHASER
 62
   250
 10
95.3866
 20
-70.8931
  0
VERTEX
  8
PHASER
 62
   250
 10
95.1923
 20
-70.9127
  0
VERTEX
  8
PHASER
 62
   250
 10
95.0113
 20
-70.9689
  0
VERTEX
  8
PHASER
 62
   250
 10
94.8474
 20
-71.0578
  0
VERTEX
  8
PHASER
 62
   250
 10
94.7047
 20
-71.1756
  0
VERTEX
  8
PHASER
 62
   250
 10
94.5869
 20
-71.3183
  0
VERTEX
  8
PHASER
 62
   250
 10
94.498
 20
-71.4822
  0
VERTEX
  8
PHASER
 62
   250
 10
94.4418
 20
-71.6632
  0
VERTEX
  8
PHASER
 62
   250
 10
94.4222
 20
-71.8575
  0
VERTEX
  8
PHASER
 62
   250
 10
94.4669
 20
-72.1476
  0
VERTEX
  8
PHASER
 62
   250
 10
97.0518
 20
-80.0279
  0
VERTEX
  8
PHASER
 62
   250
 10
100.4424
 20
-87.214
  0
VERTEX
  8
PHASER
 62
   250
 10
104.559
 20
-93.5958
  0
VERTEX
  8
PHASER
 62
   250
 10
109.322
 20
-99.0637
  0
VERTEX
  8
PHASER
 62
   250
 10
114.6516
 20
-103.5077
  0
VERTEX
  8
PHASER
 62
   250
 10
120.4684
 20
-106.818
  0
VERTEX
  8
PHASER
 62
   250
 10
126.6926
 20
-108.8848
  0
VERTEX
  8
PHASER
 62
   250
 10
133.2445
 20
-109.5981
  0
VERTEX
  8
PHASER
 62
   250
 10
141.5557
 20
-108.4454
  0
VERTEX
  8
PHASER
 62
   250
 10
149.2966
 20
-105.1392
  0
VERTEX
  8
PHASER
 62
   250
 10
156.3017
 20
-99.9069
  0
VERTEX
  8
PHASER
 62
   250
 10
162.4049
 20
-92.9762
  0
VERTEX
  8
PHASER
 62
   250
 10
167.4405
 20
-84.5747
  0
VERTEX
  8
PHASER
 62
   250
 10
171.2426
 20
-74.9298
  0
VERTEX
  8
PHASER
 62
   250
 10
173.6455
 20
-64.2692
  0
VERTEX
  8
PHASER
 62
   250
 10
174.4833
 20
-52.8205
  0
VERTEX
  8
PHASER
 62
   250
 10
173.6455
 20
-41.3714
  0
VERTEX
  8
PHASER
 62
   250
 10
171.2426
 20
-30.71
  0
VERTEX
  8
PHASER
 62
   250
 10
167.4405
 20
-21.0639
  0
VERTEX
  8
PHASER
 62
   250
 10
162.4049
 20
-12.6609
  0
VERTEX
  8
PHASER
 62
   250
 10
156.3017
 20
-5.7288
  0
VERTEX
  8
PHASER
 62
   250
 10
149.2966
 20
-0.4953
  0
VERTEX
  8
PHASER
 62
   250
 10
141.5557
 20
2.8118
  0
VERTEX
  8
PHASER
 62
   250
 10
133.2445
 20
3.9648
  0
VERTEX
  8
PHASER
 62
   250
 10
126.6926
 20
3.2515
  0
VERTEX
  8
PHASER
 62
   250
 10
120.4684
 20
1.1847
  0
VERTEX
  8
PHASER
 62
   250
 10
114.6516
 20
-2.1256
  0
VERTEX
  8
PHASER
 62
   250
 10
109.322
 20
-6.5696
  0
VERTEX
  8
PHASER
 62
   250
 10
104.559
 20
-12.0375
  0
VERTEX
  8
PHASER
 62
   250
 10
100.4424
 20
-18.4194
  0
VERTEX
  8
PHASER
 62
   250
 10
97.0518
 20
-25.6054
  0
VERTEX
  8
PHASER
 62
   250
 10
94.4669
 20
-33.4857
  0
VERTEX
  8
PHASER
 62
   250
 10
94.4222
 20
-33.7761
  0
VERTEX
  8
PHASER
 62
   250
 10
94.4418
 20
-33.9704
  0
VERTEX
  8
PHASER
 62
   250
 10
94.498
 20
-34.1514
  0
VERTEX
  8
PHASER
 62
   250
 10
94.5869
 20
-34.3153
  0
VERTEX
  8
PHASER
 62
   250
 10
94.7047
 20
-34.458
  0
VERTEX
  8
PHASER
 62
   250
 10
94.8474
 20
-34.5758
  0
VERTEX
  8
PHASER
 62
   250
 10
95.0113
 20
-34.6647
  0
VERTEX
  8
PHASER
 62
   250
 10
95.1923
 20
-34.7209
  0
VERTEX
  8
PHASER
 62
   250
 10
95.3866
 20
-34.7405
  0
VERTEX
  8
PHASER
 62
   250
 10
95.5567
 20
-34.7255
  0
VERTEX
  8
PHASER
 62
   250
 10
95.7177
 20
-34.682
  0
VERTEX
  8
PHASER
 62
   250
 10
95.8669
 20
-34.6124
  0
VERTEX
  8
PHASER
 62
   250
 10
96.0014
 20
-34.5191
  0
VERTEX
  8
PHASER
 62
   250
 10
96.1182
 20
-34.4045
  0
VERTEX
  8
PHASER
 62
   250
 10
96.2145
 20
-34.2709
  0
VERTEX
  8
PHASER
 62
   250
 10
96.2873
 20
-34.1208
  0
VERTEX
  8
PHASER
 62
   250
 10
96.3339
 20
-33.9566
  0
VERTEX
  8
PHASER
 62
   250
 10
98.8107
 20
-26.3747
  0
VERTEX
  8
PHASER
 62
   250
 10
102.048
 20
-19.4667
  0
VERTEX
  8
PHASER
 62
   250
 10
105.9709
 20
-13.3364
  0
VERTEX
  8
PHASER
 62
   250
 10
110.5043
 20
-8.0878
  0
VERTEX
  8
PHASER
 62
   250
 10
115.5733
 20
-3.8247
  0
VERTEX
  8
PHASER
 62
   250
 10
121.103
 20
-0.651
  0
VERTEX
  8
PHASER
 62
   250
 10
127.0183
 20
1.3294
  0
VERTEX
  8
PHASER
 62
   250
 10
133.2445
 20
2.0126
  0
VERTEX
  8
PHASER
 62
   250
 10
141.1645
 20
0.8972
  0
VERTEX
  8
PHASER
 62
   250
 10
148.5416
 20
-2.3019
  0
VERTEX
  8
PHASER
 62
   250
 10
155.2176
 20
-7.3637
  0
VERTEX
  8
PHASER
 62
   250
 10
161.0344
 20
-14.0673
  0
VERTEX
  8
PHASER
 62
   250
 10
165.8338
 20
-22.1919
  0
VERTEX
  8
PHASER
 62
   250
 10
169.4578
 20
-31.5165
  0
VERTEX
  8
PHASER
 62
   250
 10
171.7481
 20
-41.8204
  0
VERTEX
  8
PHASER
 62
   250
 10
172.5467
 20
-52.8825
  0
SEQEND
  8
PHASER
 62
   250
  0
POLYLINE
  8
PHASER
 62
   250
 66
     1
 70
     1
  0
VERTEX
  8
PHASER
 62
   250
 10
172.5467
 20
-52.7667
  0
VERTEX
  8
PHASER
 62
   250
 10
172.5467
 20
-52.7667
  0
VERTEX
  8
PHASER
 62
   250
 10
172.5467
 20
-52.7667
  0
SEQEND
  8
PHASER
 62
   250
  0
ENDSEC
  0
EOF
